<svg width="28" height="28" viewBox="0 0 28 28" fill="none" xmlns="http://www.w3.org/2000/svg">
<rect x="1" y="1" width="26" height="26" stroke="white" stroke-width="2"/>
<path d="M8.08477 7.275H11.5428V8.332H8.08477V7.275ZM17.6263 8.367L15.2393 4.909H16.4363C16.539 4.909 16.6136 4.92533 16.6603 4.958C16.707 4.99067 16.749 5.03733 16.7863 5.098L18.5223 7.758C18.5643 7.62733 18.625 7.49667 18.7043 7.366L20.2303 5.126C20.277 5.06067 20.3236 5.00933 20.3703 4.972C20.417 4.93 20.4753 4.909 20.5453 4.909H21.6933L19.3063 8.297L21.7913 12H20.5943C20.4916 12 20.41 11.9743 20.3493 11.923C20.2933 11.867 20.2466 11.8063 20.2093 11.741L18.4243 8.962C18.3916 9.09733 18.3426 9.21867 18.2773 9.326L16.6253 11.741C16.5786 11.8063 16.5273 11.867 16.4713 11.923C16.42 11.9743 16.3476 12 16.2543 12H15.1413L17.6263 8.367ZM10.3148 16.838V19.827H13.1638V20.772H10.3148V23.782H9.29281V20.772H6.45781V19.827H9.29281V16.838H10.3148ZM14.9289 20.982H20.9419V21.927H14.9289V20.982ZM14.9289 18.637H20.9419V19.582H14.9289V18.637Z" fill="white"/>
</svg>
